HIERARCHY
ROOT Hips
{
	OFFSET -0.001795 -0.223333 0.028219
	CHANNELS 6 Xposition Yposition Zposition Zrotation Yrotation Xrotation 
	JOINT LeftUpLeg
	{
		OFFSET 0.069520 -0.091406 -0.006815
		CHANNELS 3 Zrotation Yrotation Xrotation
		JOINT LeftLeg
		{
			OFFSET 0.034277 -0.375199 -0.004496
			CHANNELS 3 Zrotation Yrotation Xrotation
			JOINT LeftFoot
			{
				OFFSET -0.013596 -0.397961 -0.043693
				CHANNELS 3 Zrotation Yrotation Xrotation
				JOINT LeftToe
				{
					OFFSET 0.026358 -0.055791 0.119288
					CHANNELS 3 Zrotation Yrotation Xrotation
					End Site
					{
						OFFSET 0.000000 0.000000 0.000000
					}
				}
			}
		}
	}
	JOINT RightUpLeg
	{
		OFFSET -0.067670 -0.090522 -0.004320
		CHANNELS 3 Zrotation Yrotation Xrotation
		JOINT RightLeg
		{
			OFFSET -0.038290 -0.382569 -0.008850
			CHANNELS 3 Zrotation Yrotation Xrotation
			JOINT RightFoot
			{
				OFFSET 0.015774 -0.398415 -0.042312
				CHANNELS 3 Zrotation Yrotation Xrotation
				JOINT RightToe
				{
					OFFSET -0.025372 -0.048144 0.123348
					CHANNELS 3 Zrotation Yrotation Xrotation
					End Site
					{
						OFFSET 0.000000 0.000000 0.000000
					}
				}
			}
		}
	}
	JOINT Spine
	{
		OFFSET -0.002533 0.108963 -0.026696
		CHANNELS 3 Zrotation Yrotation Xrotation
		JOINT Spine1
		{
			OFFSET 0.005487 0.135180 0.001092
			CHANNELS 3 Zrotation Yrotation Xrotation
			JOINT Spine2
			{
				OFFSET 0.001457 0.052922 0.025425
				CHANNELS 3 Zrotation Yrotation Xrotation
				JOINT Neck
				{
					OFFSET -0.002778 0.213870 -0.042857
					CHANNELS 3 Zrotation Yrotation Xrotation
					JOINT Head
					{
						OFFSET 0.005152 0.064970 0.051349
						CHANNELS 3 Zrotation Yrotation Xrotation
						End Site
						{
							OFFSET 0.000000 0.000000 0.000000
						}
					}
				}
				JOINT LeftShoulder
				{
					OFFSET 0.078845 0.121749 -0.034090
					CHANNELS 3 Zrotation Yrotation Xrotation
					JOINT LeftArm
					{
						OFFSET 0.090977 0.030469 -0.008868
						CHANNELS 3 Zrotation Yrotation Xrotation
						JOINT LeftForeArm
						{
							OFFSET 0.259612 -0.012772 -0.027456
							CHANNELS 3 Zrotation Yrotation Xrotation
							JOINT LeftHand
							{
								OFFSET 0.249234 0.008986 -0.001171
								CHANNELS 3 Zrotation Yrotation Xrotation
								End Site
								{
									OFFSET 0.000000 0.000000 0.000000
								}
							}
						}
					}
				}
				JOINT RightShoulder
				{
					OFFSET -0.081759 0.118833 -0.038615
					CHANNELS 3 Zrotation Yrotation Xrotation
					JOINT RightArm
					{
						OFFSET -0.096012 0.032551 -0.009143
						CHANNELS 3 Zrotation Yrotation Xrotation
						JOINT RightForeArm
						{
							OFFSET -0.253742 -0.013329 -0.021401
							CHANNELS 3 Zrotation Yrotation Xrotation
							JOINT RightHand
							{
								OFFSET -0.255298 0.007772 -0.005559
								CHANNELS 3 Zrotation Yrotation Xrotation
								End Site
								{
									OFFSET 0.000000 0.000000 0.000000
								}
							}
						}
					}
				}
			}
		}
	}
}
MOTION
Frames: 10
Frame Time: 0.050000
0.289307 0.921977 1.127753 -4.022770 -14.532104 -5.984333 13.414185 0.828847 -5.376991 -6.204181 1.099687 5.372521 5.664522 12.343452 7.820913 0.000000 0.000000 0.000000 0.167829 0.308254 -3.202202 5.808447 -0.301390 12.692033 -6.843077 -16.424356 1.771785 0.000000 0.000000 0.000000 -3.904307 1.032751 31.020165 7.543766 -1.573881 -23.430527 1.401920 -2.068304 20.715047 -6.550314 3.881151 -33.376600 0.000000 0.000000 0.000000 -22.188892 -9.209028 6.538300 -41.473296 -39.519764 6.732180 -25.404859 -77.638011 27.920069 0.000000 0.000000 0.000000 7.513005 21.563982 7.104346 44.843982 29.454718 4.752736 20.813752 80.487871 18.086994 0.000000 0.000000 0.000000 
0.280375 0.920510 1.109378 -3.337431 -13.647661 -6.246527 13.362237 0.872095 -7.659133 -6.211974 1.137660 6.645010 5.381630 11.919643 8.998200 0.000000 0.000000 0.000000 0.265334 0.414498 -4.233029 6.388213 -0.415547 13.428545 -7.413117 -17.609171 1.487781 0.000000 0.000000 0.000000 -2.471724 0.624769 31.962473 6.599547 -1.295821 -23.835051 1.737366 -1.919809 21.565825 -6.973382 4.190692 -33.105094 0.000000 0.000000 0.000000 -21.762461 -10.239413 6.920892 -41.835398 -40.511825 7.218177 -21.500262 -78.031851 24.729773 0.000000 0.000000 0.000000 7.486876 21.136603 7.020703 44.569191 31.520935 5.384552 18.754280 78.141690 15.975002 0.000000 0.000000 0.000000 
0.272688 0.919949 1.092730 -2.677577 -12.645445 -6.217677 13.214847 0.898855 -10.073215 -6.215476 1.178518 8.075254 4.873906 11.172211 10.116657 0.000000 0.000000 0.000000 -0.010967 0.527602 -5.361684 6.864402 -0.533281 13.668312 -7.824816 -18.600380 1.770478 0.000000 0.000000 0.000000 -1.062240 0.177141 32.586422 6.343884 -1.276453 -23.261809 1.550923 -0.865822 21.062895 -7.004224 4.457384 -32.525182 0.000000 0.000000 0.000000 -21.739101 -11.548043 7.175024 -41.825292 -40.908266 7.490835 -26.440996 -78.119843 28.327402 0.000000 0.000000 0.000000 7.759316 21.482370 7.379289 44.810622 32.811653 6.025124 10.193198 75.020219 9.162483 0.000000 0.000000 0.000000 
0.266804 0.921336 1.078942 -1.683029 -12.593610 -5.619161 12.741914 0.906149 -12.428206 -6.833900 1.325065 8.207870 5.350011 12.083152 12.306565 0.000000 0.000000 0.000000 -0.507054 0.657193 -6.753960 7.439608 -0.631873 14.100916 -8.200999 -19.581753 2.788278 0.000000 0.000000 0.000000 -0.389090 -0.022228 31.972441 6.221708 -1.312091 -22.521929 1.935174 0.387696 20.326024 -8.947482 5.632862 -31.824570 0.000000 0.000000 0.000000 -21.529702 -11.061777 6.519313 -43.633665 -39.994232 7.732882 -40.092129 -78.040825 39.674544 0.000000 0.000000 0.000000 7.504802 21.178864 7.401819 44.538925 32.952199 6.127773 9.718894 71.997303 8.682707 0.000000 0.000000 0.000000 
0.262808 0.924149 1.068194 -0.523397 -11.838136 -5.135016 12.199835 0.787728 -13.059424 -8.105697 1.592213 8.201555 5.948211 13.059340 11.562388 0.000000 0.000000 0.000000 -1.033357 0.743481 -7.793648 6.993772 -0.565991 14.434268 -8.108343 -19.527071 3.326038 0.000000 0.000000 0.000000 0.457424 -0.329637 31.014570 5.517017 -1.104113 -22.642136 2.379914 0.437113 20.820780 -9.835259 6.157830 -31.225057 0.000000 0.000000 0.000000 -22.206037 -11.603780 6.859308 -44.182752 -39.061070 7.423858 -54.327867 -77.916907 52.094415 0.000000 0.000000 0.000000 7.435564 21.152418 7.445748 44.825364 32.226131 5.872413 5.222719 69.805231 5.393641 0.000000 0.000000 0.000000 
0.260975 0.927423 1.060052 0.824174 -10.716356 -4.934297 10.753669 0.477080 -12.433778 -8.806727 1.841389 9.946202 6.518497 13.931917 7.965997 0.000000 0.000000 0.000000 -2.186077 0.709406 -7.923862 6.674630 -0.548335 13.970476 -8.301938 -20.079539 4.366541 0.000000 0.000000 0.000000 1.005900 -0.562064 29.989015 5.398299 -0.983636 -23.389374 2.321608 0.103755 21.542947 -10.522164 6.543120 -31.086560 0.000000 0.000000 0.000000 -22.038732 -11.043773 6.527976 -46.032193 -38.949279 7.801945 -65.355041 -76.656907 61.232144 0.000000 0.000000 0.000000 8.138634 20.652047 7.343071 44.473404 31.689722 5.537605 6.483640 67.614796 6.091975 0.000000 0.000000 0.000000 
0.260950 0.930090 1.053306 1.952164 -9.812131 -4.939632 9.129082 0.188862 -11.185651 -8.552348 1.981763 13.178107 7.145726 15.026564 4.835105 0.000000 0.000000 0.000000 -3.521506 0.651970 -7.865376 6.482688 -0.551988 13.041367 -8.701945 -20.997804 5.663156 0.000000 0.000000 0.000000 1.878379 -0.837066 29.601316 5.170829 -0.890700 -23.535911 1.797249 -0.573499 21.665603 -11.078199 6.842890 -30.351353 0.000000 0.000000 0.000000 -22.095018 -11.012386 6.588754 -45.688237 -39.170908 7.797231 -71.859937 -76.452530 67.123197 0.000000 0.000000 0.000000 7.835621 21.258200 7.533806 45.124511 31.343226 5.509826 3.965061 65.390730 4.210937 0.000000 0.000000 0.000000 
0.262120 0.932401 1.047545 2.692724 -8.382568 -4.494489 7.673739 -0.029835 -9.036252 -8.252286 1.884778 13.863000 7.210657 15.133072 1.200224 0.000000 0.000000 0.000000 -4.551422 0.641563 -8.363607 6.606073 -0.627060 12.759108 -9.228376 -22.087042 6.910885 0.000000 0.000000 0.000000 2.578108 -1.108461 28.648108 4.634738 -0.731739 -23.532045 1.927593 -0.601423 21.541087 -10.979441 6.910954 -29.767713 0.000000 0.000000 0.000000 -21.930102 -12.560042 7.269217 -44.872815 -38.497938 7.322208 -78.356988 -76.656105 73.208833 0.000000 0.000000 0.000000 9.186633 20.213686 7.333648 44.066238 29.827470 4.793404 6.208226 64.747588 5.704590 0.000000 0.000000 0.000000 
0.264310 0.933911 1.042258 2.621267 -7.255610 -4.204456 6.875623 -0.089178 -6.753547 -7.955461 1.764295 14.106645 6.952473 14.544930 -0.962143 0.000000 0.000000 0.000000 -4.701953 0.616523 -8.197480 6.755174 -0.697563 11.656484 -9.386836 -22.417301 8.159475 0.000000 0.000000 0.000000 3.304003 -1.376380 28.549455 4.595377 -0.679898 -23.814023 1.892667 -1.213167 21.251992 -10.228839 6.483800 -29.788673 0.000000 0.000000 0.000000 -21.997198 -13.010491 7.516009 -44.217271 -39.308326 7.535339 -73.789458 -77.364512 69.409275 0.000000 0.000000 0.000000 10.243882 19.944653 7.313761 44.874228 27.815019 4.218466 7.759121 65.495158 6.797797 0.000000 0.000000 0.000000 
0.267199 0.934276 1.037494 2.290448 -6.270629 -3.810424 6.448298 -0.078525 -4.599318 -7.168994 1.466115 13.304995 5.771227 11.997955 -1.526504 0.000000 0.000000 0.000000 -4.630454 0.608911 -8.118902 6.855126 -0.747150 10.841110 -9.413347 -22.465404 8.639309 0.000000 0.000000 0.000000 3.490515 -1.496488 28.180626 4.656667 -0.674243 -23.815050 2.069926 -1.281779 21.349260 -9.128102 6.001965 -28.752292 0.000000 0.000000 0.000000 -21.388572 -13.862059 7.811454 -44.132449 -40.316368 7.959612 -70.985900 -77.061957 66.381312 0.000000 0.000000 0.000000 11.305105 19.661872 7.366140 44.869524 26.633969 3.784570 8.552056 64.763949 7.334357 0.000000 0.000000 0.000000 
